<svg width="98" height="26" viewBox="0 0 98 26" xmlns="http://www.w3.org/2000/svg"><title>XMLID_12_</title><g fill="#0070E0" fill-rule="evenodd"><path d="M.095 1.407h6.58c5.637 0 9.2 3.637 9.2 9.31 0 5.675-3.545 9.313-9.2 9.313H.095V1.407zM6.53 16.63c3.545 0 5.49-2.274 5.49-5.894 0-3.637-1.945-5.91-5.49-5.91H3.95V16.63h2.58zm19.325-6.44c-.51-.308-1.182-.454-1.89-.454-1.273 0-2.31.673-2.582 1.91v8.402h-3.745V6.48H21.4v1.33c.583-.964 1.692-1.636 3.037-1.636.636 0 1.218.127 1.418.236v3.783zm7.508 10.167c-3.945 0-6.654-2.91-6.654-7.074 0-4.183 2.707-7.11 6.652-7.11 3.945 0 6.636 2.908 6.636 7.11 0 4.164-2.692 7.074-6.637 7.074zm0-10.985c-1.89 0-2.91 1.637-2.91 3.91 0 2.238 1.038 3.892 2.91 3.892 1.873 0 2.91-1.636 2.91-3.89 0-2.275-1.037-3.912-2.91-3.912zM45.38 25.068h-3.763V6.48h3.763v1.13c.6-.727 1.945-1.418 3.4-1.418 3.944 0 6.18 3.273 6.18 7.11 0 3.82-2.236 7.075-6.18 7.075-1.455 0-2.8-.69-3.4-1.418v6.11zm0-9.567c.454.948 1.454 1.585 2.545 1.585 2.036 0 3.254-1.637 3.254-3.8 0-2.184-1.22-3.82-3.256-3.82-1.127 0-2.09.672-2.545 1.582V15.5zm14.998 4.548h-3.8V.315h3.8v7.293c.6-.727 1.945-1.418 3.4-1.418 3.944 0 6.162 3.22 6.162 7.11 0 3.893-2.218 7.075-6.163 7.075-1.454 0-2.8-.69-3.4-1.418v1.09zm0-4.547c.418.948 1.418 1.585 2.545 1.585 2.036 0 3.254-1.637 3.254-3.8 0-2.184-1.218-3.82-3.254-3.82-1.09 0-2.127.672-2.545 1.582V15.5zm17.562 4.893c-3.946 0-6.655-2.91-6.655-7.074 0-4.185 2.71-7.113 6.654-7.113 3.942 0 6.633 2.91 6.633 7.11 0 4.166-2.71 7.075-6.635 7.075zm0-10.984c-1.892 0-2.91 1.635-2.91 3.91 0 2.235 1.036 3.89 2.91 3.89 1.87 0 2.907-1.637 2.907-3.89 0-2.275-1.036-3.91-2.908-3.91z"/><path d="M93.027 13.046l4.945 7.02H93.81L90.9 15.81l-2.945 4.256H84.01l4.89-6.93L84.3 6.5h4.164l2.618 3.854L93.736 6.5h3.945"/></g></svg>